<?xml version="1.0" standalone="no"?>
<!DOCTYPE svg PUBLIC "-//W3C//DTD SVG 20010904//EN"
 "http://www.w3.org/TR/2001/REC-SVG-20010904/DTD/svg10.dtd">
<svg version="1.0" xmlns="http://www.w3.org/2000/svg"
 width="512.000000pt" height="512.000000pt" viewBox="0 0 512.000000 512.000000"
 preserveAspectRatio="xMidYMid meet">

<g transform="translate(0.000000,512.000000) scale(0.100000,-0.100000)"
fill="#000000" stroke="none">
<path d="M3361 4159 c21 -67 -18 -151 -85 -183 -45 -21 -94 -20 -166 4 -67 23
-105 19 -167 -16 -80 -46 -64 30 -303 -1406 -214 -1282 -220 -1315 -254 -1383
-65 -130 -168 -220 -303 -266 -92 -32 -241 -33 -327 -2 l-59 21 459 -460 459
-460 120 6 c488 23 1028 235 1435 563 110 88 287 265 373 373 323 401 528 912
563 1399 l6 86 -881 880 c-703 702 -878 872 -870 844z"/>
</g>
</svg>
